<?xml version="1.0" encoding="utf-8"?>
<!-- Generator: Adobe Illustrator 17.0.0, SVG Export Plug-In . SVG Version: 6.00 Build 0)  -->
<!DOCTYPE svg PUBLIC "-//W3C//DTD SVG 1.1//EN" "http://www.w3.org/Graphics/SVG/1.1/DTD/svg11.dtd">
<svg version="1.1" id="Layer_1" xmlns="http://www.w3.org/2000/svg" xmlns:xlink="http://www.w3.org/1999/xlink" x="0px" y="0px"
	 width="180px" height="150px" viewBox="0 -40 180 150" enable-background="new 0 -40 180 150" xml:space="preserve">
<path display="none" fill="#39435B" stroke="#39435B" stroke-width="0.7461" stroke-miterlimit="10" d="M47.856,45.504
	c-3.456,0-6.302,2.439-6.302,5.895s2.846,5.895,6.302,5.895c3.252,0,6.098-2.439,6.098-5.895
	C53.955,47.943,51.109,45.504,47.856,45.504z M47.736,55.153c-2.044,0-3.816-1.635-3.816-3.816c0-2.044,1.772-3.68,3.816-3.68
	c2.044,0,3.816,1.635,3.816,3.68C51.552,53.518,49.781,55.153,47.736,55.153z M63.574,17.939l0.001,0.012
	c-5.635,1.096-18.805,3.636-18.066,9.093c2.301,2.559,15.858,2.124,19.413,2.124l0,0l46.8,0.657c1.913,0,4.005-1.124,4.005-1.733
	L94.753,17.921C84.589,15.075,77.893,14.763,63.574,17.939z M47.351,26.179c0-3.38,12.002-5.642,16.332-6.31l0.003,0.046
	c0.092-0.028,0.188-0.053,0.281-0.081v5.084l0.157,2.792l-0.857-0.008l0.007-0.253C59.559,27.414,49.057,27.127,47.351,26.179z
	 M64.98,27.717l0.327-8.267c8.959-2.374,20.641-2.675,29.382-0.205l16.915,8.906L64.98,27.717z M136.893,44.691
	c-3.049,0-5.692,2.439-5.692,5.489c0,3.252,2.643,5.692,5.692,5.692s5.692-2.439,5.692-5.692
	C142.585,47.13,139.942,44.691,136.893,44.691z M136.893,54.029c-2.044,0-3.816-1.635-3.816-3.816c0-2.044,1.772-3.68,3.816-3.68
	c2.044,0,3.816,1.635,3.816,3.68C140.709,52.393,138.937,54.029,136.893,54.029z M171.248,40.015
	c-1.626-3.659-4.675-5.082-8.335-5.285c-2.439-2.439-5.895-5.082-9.351-5.692c-10.367-1.22-20.735-1.22-31.102-2.643
	C90.342,8.913,83.227,5.864,43.79,17.654c-8.741,2.643-28.663,9.554-31.712,19.108l-1.016,13.823
	c5.895,4.675,17.482,6.505,25.004,6.505c2.236,4.472,6.708,7.115,11.79,7.115c4.879,0,9.554-2.846,11.79-7.318l66.879-0.203
	c2.236,3.456,6.098,5.489,10.367,5.489s8.131-2.033,10.571-5.489c8.944,0,16.059,1.016,23.987-4.472L171.248,40.015z M47.856,62.579
	c-6.302,0-11.587-4.675-11.587-10.977c0-6.505,5.285-11.181,11.587-11.181c6.098,0,11.587,4.675,11.587,11.181
	C59.443,57.904,53.955,62.579,47.856,62.579z M136.893,60.75c-5.895,0-10.774-4.472-10.774-10.367s5.082-10.367,10.774-10.367
	s10.774,4.472,10.774,10.367S142.585,60.75,136.893,60.75z M169.825,51.399c-6.505,4.472-13.213,3.862-20.531,3.659
	c0.203-0.61,0.407-1.016,0.61-1.626c0.203-1.016,0.407-2.033,0.407-3.252c0-7.318-6.302-12.807-13.62-12.807
	c-7.115,0-13.416,5.489-13.416,12.807c0,1.829,0.407,3.456,1.016,5.082l-63.017,0.203c0.407-1.22,0.61-2.643,0.61-3.862
	c0-7.725-6.505-13.417-14.026-13.417s-14.23,5.692-14.23,13.417c0,1.423,0.203,2.643,0.61,3.862
	c-6.098-0.203-16.466-1.83-21.548-5.489l0.813-13.01c2.643-6.912,15.653-13.417,30.695-17.889
	c38.827-11.587,46.145-8.741,77.857,8.944c10.367,1.22,20.735,1.626,31.305,2.439c3.253,0.813,6.505,3.456,8.741,5.895
	c3.253,0,6.098,0.813,7.725,4.066L169.825,51.399L169.825,51.399z M28.146,29.325c-3.836,0.491-8.763,4.074-10.89,7.147
	c-1.927,3.037-1.381,6.037,2.619,5.309c3.836-0.492,8.563-4.038,10.69-7.111C32.492,31.633,32.146,28.597,28.146,29.325z
	 M29.347,33.652c-1.963,2.837-6.326,6.11-9.726,6.729c-2.636,0.273-2.291-1.236-0.946-2.927c1.272-2.091,3.618-3.964,5.672-5.164
	c1.491-0.891,2.854-1.346,4.054-1.564C31.038,30.451,30.492,31.997,29.347,33.652z M151.391,32.682
	c-2.846-0.203-3.862,1.83-2.033,3.862c1.22,1.423,5.082,3.456,7.115,3.456c2.846,0.203,3.659-1.626,1.829-3.862
	C157.083,34.511,153.424,32.885,151.391,32.682z M156.473,38.577c-1.829-0.203-4.472-1.626-5.895-3.049
	c-0.813-1.016-0.813-1.423,0.61-1.22c2.033,0,4.675,1.423,5.895,2.846C158.099,38.17,157.896,38.577,156.473,38.577z M63.967,27.452
	c-0.191,0-0.426-0.001-0.694-0.004l0.197-7.472c0.07-0.022,0.145-0.041,0.216-0.062l0.281,5.003
	C63.967,24.917,63.967,27.452,63.967,27.452z"/>
<g display="none">
	<circle display="inline" fill="#39435B" cx="48.593" cy="70.799" r="1.532"/>
	<circle display="inline" fill="#39435B" cx="130.933" cy="70.799" r="1.532"/>
	<path display="inline" fill="#39435B" d="M151.955,65.338V58.97c0-0.785-0.638-1.423-1.423-1.423c-0.784,0-1.422,0.638-1.422,1.422
		v6.368c0,0.906-0.738,1.643-1.645,1.643l-2.765-0.008l-0.061-0.309C143.522,61.064,138.561,57,132.843,57h-14.872
		c-0.857,0-1.556-0.698-1.556-1.555V27.864c0-0.906,0.737-1.643,1.644-1.643h6.262v12.095c0,3.505,2.851,6.356,6.355,6.356h18.434
		v5.985c0,0.785,0.638,1.423,1.422,1.423c0.785,0,1.423-0.638,1.423-1.423V38.199c0-8.173-6.649-14.823-14.822-14.823h-19.074
		c-2.475,0-4.487,2.013-4.487,4.488V48.44h-5.986v-3.628c0-2.586-1.161-5.001-3.188-6.628l-0.296-0.238l1.263-1.605
		c1.167-1.487,1.58-3.393,1.134-5.229l-2.989-12.296c-0.733-3.015-2.48-5.731-4.919-7.648L72.991-8.95
		c-2.438-1.916-5.49-2.972-8.593-2.972l-12.655,0.003c-1.891,0-3.646,0.853-4.813,2.339L37.027,3.023
		c-1.169,1.487-1.583,3.393-1.136,5.229l2.989,12.296c0.733,3.015,2.48,5.731,4.919,7.648l9.779,7.684l-6.417,12.56h-3.566
		c-3.783,0-7.289,2.203-8.93,5.612l-6.117,12.713c-0.321,0.666-0.277,1.436,0.116,2.062v0.001c0.393,0.625,1.069,0.999,1.809,0.999
		l8.756-0.008l-0.022,0.406c-0.01,0.191-0.019,0.382-0.019,0.575c0,5.187,4.22,9.407,9.406,9.407c5.187,0,9.405-4.22,9.405-9.407
		c0-0.192-0.007-0.383-0.018-0.573l-0.024-0.407h2.918l-0.024,0.407c-0.012,0.19-0.019,0.381-0.019,0.573
		c0,5.187,4.22,9.407,9.406,9.407s9.405-4.22,9.405-9.407c0-0.192-0.007-0.382-0.02-0.572l-0.026-0.409h15.15l0.032,0.349
		c0.157,1.712,1.627,3.053,3.347,3.053h7.597c1.72,0,3.189-1.341,3.347-3.053l0.032-0.349h12.47l-0.024,0.407
		c-0.012,0.19-0.019,0.381-0.019,0.573c0,5.187,4.219,9.407,9.405,9.407c5.186,0,9.405-4.22,9.405-9.407
		c0-0.192-0.007-0.382-0.02-0.572l-0.026-0.409l7.173,0.008C149.941,69.826,151.955,67.813,151.955,65.338z M127.165,26.222h9.968
		c6.604,0,11.978,5.373,11.978,11.978v3.629h-18.434c-1.937,0-3.512-1.575-3.512-3.511V26.222z M104.742,44.812v3.628h-8.887
		l6.493-8.261l0.304,0.247C103.98,41.507,104.742,43.106,104.742,44.812z M42.414,22.073l-0.25-0.611
		c-0.216-0.527-0.391-1.061-0.519-1.586L38.655,7.58c-0.239-0.982-0.019-2.002,0.607-2.799l9.904-12.604
		c0.625-0.795,1.565-1.251,2.576-1.251l12.655-0.003c0.547,0,1.106,0.043,1.664,0.13l0.65,0.101L42.414,22.073z M45.557,25.959
		c-0.435-0.342-0.858-0.732-1.255-1.158l-0.225-0.241l0.203-0.259l25.242-32.12l0.287,0.161c0.501,0.28,0.98,0.598,1.424,0.945
		l25.599,20.118c0.438,0.344,0.86,0.733,1.255,1.158l0.225,0.241l-4.354,5.541c-0.485,0.617-0.377,1.514,0.239,1.998
		c0.598,0.471,1.527,0.358,1.996-0.24l3.782-4.811l0.251,0.609c0.215,0.522,0.39,1.056,0.518,1.587l2.99,12.296
		c0.238,0.984,0.017,2.005-0.609,2.8l-9.902,12.603c-0.626,0.796-1.566,1.252-2.577,1.252L77.993,48.44
		c-0.543,0-1.103-0.043-1.665-0.129l-0.652-0.099L91.02,28.687c0.235-0.298,0.34-0.671,0.295-1.048
		c-0.046-0.377-0.235-0.714-0.534-0.949c-0.615-0.484-1.512-0.376-1.997,0.24L72.866,47.184l-0.287-0.161
		c-0.508-0.285-0.986-0.604-1.422-0.946L45.557,25.959z M55.857,37.672L69.561,48.44H50.356L55.857,37.672z M48.593,77.36
		c-3.618,0-6.562-2.943-6.562-6.562c0-3.618,2.943-6.561,6.562-6.561c3.619,0,6.562,2.943,6.562,6.561
		C55.154,74.417,52.211,77.36,48.593,77.36z M70.236,77.36c-3.618,0-6.562-2.943-6.562-6.562c0-3.618,2.943-6.561,6.562-6.561
		c3.618,0,6.562,2.943,6.562,6.561C76.798,74.417,73.854,77.36,70.236,77.36z M78.832,66.973l-0.104-0.218
		c-1.559-3.257-4.891-5.362-8.49-5.362c-3.601,0-6.934,2.104-8.492,5.362l-0.104,0.218H57.19l-0.104-0.218
		c-1.559-3.257-4.892-5.362-8.491-5.362c-3.601,0-6.934,2.105-8.49,5.363l-0.104,0.218h-2.06l4.435-9.213
		c0.221-0.459,0.712-0.768,1.223-0.768h31.7c0.525,0,0.979,0.28,1.213,0.749l4.622,9.231C81.134,66.973,78.832,66.973,78.832,66.973
		z M84.918,66.973c-0.404-0.03-0.729-0.245-0.895-0.577l-4.972-9.928c-0.716-1.431-2.155-2.32-3.757-2.32h-31.7
		c-1.604,0-3.089,0.934-3.785,2.379l-4.743,9.854c-0.152,0.317-0.452,0.537-0.802,0.588l-2.053,0.012H31.6l5.628-11.695
		c1.172-2.431,3.671-4,6.367-4h31.7c2.691,0,5.112,1.495,6.317,3.901l5.901,11.787L84.918,66.973L84.918,66.973z M106.241,69.859
		c0,0.286-0.232,0.518-0.519,0.518h-7.597c-0.286,0-0.519-0.233-0.519-0.518V64.02c0-0.785-0.638-1.423-1.422-1.423
		s-1.422,0.638-1.422,1.423v2.953H90.71l-0.11-0.189l-4.901-9.791h20.542V69.859z M84.264,54.148l-0.103-0.224
		c-0.358-0.716-0.805-1.387-1.328-2.006l-0.537-0.633h31.276v2.863H84.264z M130.933,77.36c-3.618,0-6.563-2.943-6.563-6.562
		c0-3.618,2.944-6.561,6.563-6.561c3.618,0,6.561,2.943,6.561,6.561C137.495,74.417,134.552,77.36,130.933,77.36z M139.528,66.973
		l-0.104-0.218c-1.558-3.257-4.89-5.362-8.49-5.362c-3.6,0-6.933,2.105-8.492,5.362l-0.104,0.218h-13.253v-9.98h4.763l0.102,0.229
		c0.707,1.594,2.286,2.625,4.022,2.625h14.872c4.067,0,7.696,2.729,8.823,6.636l0.142,0.491L139.528,66.973L139.528,66.973z"/>
	<circle display="inline" fill="#39435B" cx="70.236" cy="70.799" r="1.532"/>
	<path display="inline" fill="#39435B" d="M131.505,47.801h-4.003c-0.823,0-1.492,0.67-1.492,1.493s0.669,1.492,1.491,1.492h4.004
		c0.823,0,1.492-0.669,1.492-1.492C132.997,48.471,132.328,47.801,131.505,47.801z"/>
</g>
<g>
	<path fill="#39435B" d="M126.386,21.63c-0.744,0-1.349,0.604-1.349,1.348v11.076c0,0.744,0.604,1.348,1.349,1.348h16.424
		c0.744,0,1.349-0.604,1.349-1.348s-0.605-1.349-1.349-1.349h-15.075v-9.727C127.735,22.234,127.131,21.63,126.386,21.63z"/>
	<path fill="#39435B" d="M129.328,42.647h-2.499c-0.744,0-1.349,0.604-1.349,1.348s0.604,1.349,1.349,1.349h2.499
		c0.744,0,1.349-0.605,1.349-1.349C130.677,43.252,130.072,42.647,129.328,42.647z"/>
	<path fill="#39435B" d="M164.129,61.809h6.342V44.067c-0.128-5.251-3.471-6.434-7.495-7.346c-0.188-0.042-0.5-0.104-0.903-0.182
		c-9.639-1.874-11.498-3.684-11.748-4.596c-4.41-16.46-16.958-16.46-26.119-16.46h-5.85v43.631h-4.75V2.128H9.306v59.551h5.521
		l0.14,0.519c0.875,3.244,3.811,5.509,7.14,5.509s6.266-2.265,7.141-5.509l0.14-0.518h2.854l0.14,0.519
		c0.874,3.244,3.809,5.509,7.14,5.509c3.329,0,6.266-2.265,7.141-5.509l0.14-0.518h28.334l0.14,0.519
		c0.874,3.244,3.81,5.509,7.14,5.509c3.329,0,6.266-2.265,7.141-5.509l0.14-0.518h2.853l0.14,0.519
		c0.874,3.244,3.81,5.509,7.14,5.509c3.267,0,6.188-2.216,7.103-5.39l0.146-0.506h42.666l0.156,0.487
		c0.99,3.102,3.817,5.186,7.036,5.186c3.218,0,6.046-2.084,7.038-5.186L164.129,61.809z M22.11,65.01
		c-2.607,0-4.728-2.121-4.728-4.728c0-2.607,2.121-4.728,4.728-4.728c2.606,0,4.728,2.121,4.728,4.728
		C26.838,62.889,24.717,65.01,22.11,65.01z M39.523,65.01c-2.607,0-4.728-2.121-4.728-4.728c0-2.607,2.121-4.728,4.728-4.728
		c2.607,0,4.729,2.121,4.729,4.728C44.252,62.889,42.131,65.01,39.523,65.01z M82.417,65.01c-2.606,0-4.728-2.121-4.728-4.728
		c0-2.607,2.121-4.728,4.728-4.728c2.607,0,4.729,2.121,4.729,4.728C87.145,62.889,85.024,65.01,82.417,65.01z M99.831,65.01
		c-2.606,0-4.728-2.121-4.728-4.728c0-2.607,2.121-4.728,4.728-4.728c2.607,0,4.729,2.121,4.729,4.728
		C104.559,62.889,102.438,65.01,99.831,65.01z M110.91,58.981h-3.776L107,58.454c-0.843-3.295-3.79-5.597-7.167-5.597
		c-3.379,0-6.326,2.301-7.166,5.596l-0.134,0.527H89.72l-0.134-0.527c-0.843-3.295-3.789-5.597-7.166-5.597
		c-3.379,0-6.326,2.301-7.167,5.596l-0.134,0.527H46.824l-0.134-0.527c-0.843-3.295-3.79-5.597-7.167-5.597
		c-3.379,0-6.326,2.301-7.166,5.596l-0.134,0.527H29.41l-0.134-0.527c-0.843-3.295-3.79-5.597-7.166-5.597
		c-3.379,0-6.326,2.301-7.167,5.596l-0.134,0.527h-2.805V4.825h98.906C110.91,4.825,110.91,58.981,110.91,58.981z M156.938,64.785
		c-2.605,0-4.726-2.121-4.726-4.728s2.12-4.728,4.726-4.728c2.607,0,4.729,2.121,4.729,4.728S159.546,64.785,156.938,64.785z
		 M156.938,52.634c-3.504,0-6.562,2.49-7.27,5.921l-0.115,0.559h-28.502V18.18h3.153c9.655,0,19.639,0,23.514,14.458
		c0.961,3.588,7.535,5.323,13.839,6.548c0.362,0.071,0.644,0.127,0.816,0.165c3.505,0.794,5.019,1.506,5.328,3.863l0.104,0.791
		h-2.287c-0.744,0-1.349,0.604-1.349,1.348s0.604,1.349,1.349,1.349h2.26v3.386h-2.26c-0.744,0-1.349,0.604-1.349,1.348
		s0.604,1.349,1.349,1.349h2.26v6.33h-3.453l-0.115-0.559C163.503,55.125,160.444,52.634,156.938,52.634z"/>
</g>
</svg>
